<?xml version="1.0" encoding="iso-8859-1"?>
<!-- Generator: Adobe Illustrator 16.0.0, SVG Export Plug-In . SVG Version: 6.00 Build 0)  -->
<!DOCTYPE svg PUBLIC "-//W3C//DTD SVG 1.1//EN" "http://www.w3.org/Graphics/SVG/1.1/DTD/svg11.dtd">
<svg version="1.1" id="Capa_1" xmlns="http://www.w3.org/2000/svg" xmlns:xlink="http://www.w3.org/1999/xlink" x="0px" y="0px"
	 width="28px" height="28px" viewBox="0 0 28 28" style="enable-background:new 0 0 28 28;" xml:space="preserve">
<g>
	<g>
		<rect x="7" y="16" width="2" height="2"/>
		<rect x="11" y="16" width="2" height="2"/>
		<rect x="15" y="16" width="2" height="2"/>
		<rect x="19" y="20" width="2" height="2"/>
		<rect x="7" y="20" width="2" height="2"/>
		<rect x="11" y="20" width="2" height="2"/>
		<rect x="15" y="20" width="2" height="2"/>
		<rect x="19" y="16" width="2" height="2"/>
		<path d="M21,2V0h-2v2H9V0H7v2H1v26h26V2H21z M25,26H3V12h22V26z M25,10H3V4h4v2h2V4h10v2h2V4h4V10z"/>
	</g>
</g>
<g>
</g>
<g>
</g>
<g>
</g>
<g>
</g>
<g>
</g>
<g>
</g>
<g>
</g>
<g>
</g>
<g>
</g>
<g>
</g>
<g>
</g>
<g>
</g>
<g>
</g>
<g>
</g>
<g>
</g>
</svg>
